<?xml version="1.0" encoding="UTF-8" standalone="no"?>
<!DOCTYPE svg PUBLIC "-//W3C//DTD SVG 1.1//EN"
 "http://www.w3.org/Graphics/SVG/1.1/DTD/svg11.dtd">
<!-- Generated by graphviz version 2.43.0 (0)
 -->
<!-- Title: %3 Pages: 1 -->
<svg width="332pt" height="238pt"
 viewBox="0.00 0.00 332.00 237.74" xmlns="http://www.w3.org/2000/svg" xmlns:xlink="http://www.w3.org/1999/xlink">
<g id="graph0" class="graph" transform="scale(1 1) rotate(0) translate(36 201.74)">
<title>%3</title>
<polygon fill="dimgray" stroke="transparent" points="-36,36 -36,-201.74 296,-201.74 296,36 -36,36"/>
<text text-anchor="middle" x="130" y="-150.54" font-family="Helvetica,sans-Serif" font-size="14.00">Sweep&#39;s Plan &amp; Progress</text>
<!-- start -->
<g id="node1" class="node">
<title>start</title>
</g>
<!-- b313a7bf&#45;ac52&#45;4239&#45;a301&#45;e6c485b3a598 -->
<g id="node3" class="node">
<title>b313a7bf&#45;ac52&#45;4239&#45;a301&#45;e6c485b3a598</title>
<ellipse fill="#0ee832" stroke="black" cx="130" cy="-99.87" rx="55.72" ry="26.74"/>
<text text-anchor="middle" x="130" y="-103.67" font-family="Helvetica,sans-Serif" font-size="14.00">✓ Modify</text>
<text text-anchor="middle" x="130" y="-88.67" font-family="Helvetica,sans-Serif" font-size="14.00">app.py</text>
</g>
<!-- start&#45;&gt;b313a7bf&#45;ac52&#45;4239&#45;a301&#45;e6c485b3a598 -->
<g id="edge2" class="edge">
<title>start&#45;&gt;b313a7bf&#45;ac52&#45;4239&#45;a301&#45;e6c485b3a598</title>
<path fill="none" stroke="black" d="M22.69,-99.87C26.33,-99.87 43.92,-99.87 63.83,-99.87"/>
<polygon fill="black" stroke="black" points="64.07,-103.37 74.07,-99.87 64.07,-96.37 64.07,-103.37"/>
<text text-anchor="middle" x="48.32" y="-106.67" font-family="Helvetica,sans-Serif" font-size="14.00">Start</text>
</g>
<!-- end -->
<g id="node2" class="node">
<title>end</title>
</g>
<!-- b313a7bf&#45;ac52&#45;4239&#45;a301&#45;e6c485b3a598&#45;&gt;end -->
<g id="edge3" class="edge">
<title>b313a7bf&#45;ac52&#45;4239&#45;a301&#45;e6c485b3a598&#45;&gt;end</title>
<path fill="none" stroke="black" d="M186,-99.87C203.96,-99.87 222.06,-99.87 233.15,-99.87"/>
<polygon fill="black" stroke="black" points="233.26,-103.37 243.26,-99.87 233.26,-96.37 233.26,-103.37"/>
<text text-anchor="middle" x="214.68" y="-106.67" font-family="Helvetica,sans-Serif" font-size="14.00">Finish</text>
</g>
<!-- bb3dae8e&#45;de93&#45;4ce1&#45;8458&#45;9b9c5d71740c -->
<g id="node4" class="node">
<title>bb3dae8e&#45;de93&#45;4ce1&#45;8458&#45;9b9c5d71740c</title>
<polygon fill="yellow" stroke="black" points="260,-36 0,-36 0,0 260,0 260,-36"/>
<text text-anchor="middle" x="130" y="-14.3" font-family="Helvetica,sans-Serif" font-size="14.00">⋯ Run GitHub Actions for `app.py`</text>
</g>
<!-- b313a7bf&#45;ac52&#45;4239&#45;a301&#45;e6c485b3a598&#45;&gt;bb3dae8e&#45;de93&#45;4ce1&#45;8458&#45;9b9c5d71740c -->
<g id="edge1" class="edge">
<title>b313a7bf&#45;ac52&#45;4239&#45;a301&#45;e6c485b3a598&#45;&gt;bb3dae8e&#45;de93&#45;4ce1&#45;8458&#45;9b9c5d71740c</title>
<path fill="none" stroke="black" stroke-dasharray="5,2" d="M130,-72.72C130,-64.27 130,-54.89 130,-46.36"/>
<polygon fill="black" stroke="black" points="133.5,-46.15 130,-36.15 126.5,-46.15 133.5,-46.15"/>
</g>
</g>
</svg>
