<?xml version="1.0" encoding="UTF-8" standalone="no"?>
<!DOCTYPE svg PUBLIC "-//W3C//DTD SVG 1.1//EN"
 "http://www.w3.org/Graphics/SVG/1.1/DTD/svg11.dtd">
<!-- Generated by graphviz version 2.43.0 (0)
 -->
<!-- Title: %3 Pages: 1 -->
<svg width="328pt" height="238pt"
 viewBox="0.00 0.00 328.00 237.74" xmlns="http://www.w3.org/2000/svg" xmlns:xlink="http://www.w3.org/1999/xlink">
<g id="graph0" class="graph" transform="scale(1 1) rotate(0) translate(36 201.74)">
<title>%3</title>
<polygon fill="dimgray" stroke="transparent" points="-36,36 -36,-201.74 292,-201.74 292,36 -36,36"/>
<text text-anchor="middle" x="128" y="-150.54" font-family="Helvetica,sans-Serif" font-size="14.00">Sweep&#39;s Plan &amp; Progress</text>
<!-- start -->
<g id="node1" class="node">
<title>start</title>
</g>
<!-- b313a7bf&#45;ac52&#45;4239&#45;a301&#45;e6c485b3a598 -->
<g id="node3" class="node">
<title>b313a7bf&#45;ac52&#45;4239&#45;a301&#45;e6c485b3a598</title>
<ellipse fill="yellow" stroke="black" cx="128" cy="-99.87" rx="57.05" ry="26.74"/>
<text text-anchor="middle" x="128" y="-103.67" font-family="Helvetica,sans-Serif" font-size="14.00">⋯ Modify</text>
<text text-anchor="middle" x="128" y="-88.67" font-family="Helvetica,sans-Serif" font-size="14.00">app.py</text>
</g>
<!-- start&#45;&gt;b313a7bf&#45;ac52&#45;4239&#45;a301&#45;e6c485b3a598 -->
<g id="edge2" class="edge">
<title>start&#45;&gt;b313a7bf&#45;ac52&#45;4239&#45;a301&#45;e6c485b3a598</title>
<path fill="none" stroke="black" d="M19.7,-99.87C23.33,-99.87 40.67,-99.87 60.46,-99.87"/>
<polygon fill="black" stroke="black" points="60.64,-103.37 70.64,-99.87 60.64,-96.37 60.64,-103.37"/>
<text text-anchor="middle" x="45.11" y="-106.67" font-family="Helvetica,sans-Serif" font-size="14.00">Start</text>
</g>
<!-- end -->
<g id="node2" class="node">
<title>end</title>
</g>
<!-- b313a7bf&#45;ac52&#45;4239&#45;a301&#45;e6c485b3a598&#45;&gt;end -->
<g id="edge3" class="edge">
<title>b313a7bf&#45;ac52&#45;4239&#45;a301&#45;e6c485b3a598&#45;&gt;end</title>
<path fill="none" stroke="black" d="M185.5,-99.87C203.21,-99.87 220.92,-99.87 231.91,-99.87"/>
<polygon fill="black" stroke="black" points="232.27,-103.37 242.27,-99.87 232.27,-96.37 232.27,-103.37"/>
<text text-anchor="middle" x="213.89" y="-106.67" font-family="Helvetica,sans-Serif" font-size="14.00">Finish</text>
</g>
<!-- bb3dae8e&#45;de93&#45;4ce1&#45;8458&#45;9b9c5d71740c -->
<g id="node4" class="node">
<title>bb3dae8e&#45;de93&#45;4ce1&#45;8458&#45;9b9c5d71740c</title>
<polygon fill="white" stroke="black" points="256,-36 0,-36 0,0 256,0 256,-36"/>
<text text-anchor="middle" x="128" y="-14.3" font-family="Helvetica,sans-Serif" font-size="14.00">▶ Run GitHub Actions for `app.py`</text>
</g>
<!-- b313a7bf&#45;ac52&#45;4239&#45;a301&#45;e6c485b3a598&#45;&gt;bb3dae8e&#45;de93&#45;4ce1&#45;8458&#45;9b9c5d71740c -->
<g id="edge1" class="edge">
<title>b313a7bf&#45;ac52&#45;4239&#45;a301&#45;e6c485b3a598&#45;&gt;bb3dae8e&#45;de93&#45;4ce1&#45;8458&#45;9b9c5d71740c</title>
<path fill="none" stroke="black" stroke-dasharray="5,2" d="M128,-72.72C128,-64.27 128,-54.89 128,-46.36"/>
<polygon fill="black" stroke="black" points="131.5,-46.15 128,-36.15 124.5,-46.15 131.5,-46.15"/>
</g>
</g>
</svg>
